<?xml version="1.0" standalone="no"?>
<!DOCTYPE svg PUBLIC "-//W3C//DTD SVG 20010904//EN"
 "http://www.w3.org/TR/2001/REC-SVG-20010904/DTD/svg10.dtd">
<svg version="1.0" xmlns="http://www.w3.org/2000/svg"
 width="275.000000pt" height="360.000000pt" viewBox="0 0 275.000000 360.000000"
 preserveAspectRatio="xMidYMid meet">

<g transform="translate(0.000000,360.000000) scale(0.100000,-0.100000)"
fill="#000000" stroke="none">
<path d="M1362 3532 c-27 -90 -134 -172 -387 -296 -303 -148 -412 -208 -526
-292 -151 -111 -284 -271 -343 -411 -34 -81 -62 -189 -76 -288 -25 -174 50
-417 190 -619 65 -94 158 -196 178 -196 10 0 -6 23 -44 63 -77 78 -112 125
-167 218 -167 284 -181 573 -41 852 96 190 305 378 586 526 54 28 106 55 115
60 10 6 83 42 163 80 80 38 173 88 208 112 74 49 137 123 152 181 14 51 7 60
-8 10z"/>
<path d="M1385 3510 c10 -35 56 -96 102 -134 56 -47 130 -89 392 -220 255
-128 359 -190 466 -279 336 -280 441 -673 281 -1045 -55 -129 -158 -279 -254
-370 -21 -19 -29 -32 -20 -32 8 0 28 15 44 33 186 205 275 373 315 596 l22
116 -21 125 c-47 283 -200 504 -474 684 -97 64 -140 89 -245 145 -10 5 -111
55 -225 111 -115 56 -208 105 -208 109 0 4 -11 13 -24 19 -38 17 -97 73 -129
122 -18 29 -26 36 -22 20z"/>
<path d="M1245 3259 c-243 -27 -490 -145 -664 -319 -177 -177 -276 -383 -316
-655 -17 -114 -17 -128 -1 -235 37 -251 96 -397 233 -577 l62 -82 -62 -6 c-34
-3 -105 -1 -157 4 -52 6 -101 11 -107 11 -7 0 -13 10 -13 21 0 19 -2 20 -16 8
-14 -11 -19 -10 -33 6 -43 53 -111 51 -111 -3 1 -51 28 -413 32 -417 15 -14
250 -79 327 -90 165 -25 373 -14 584 31 227 48 416 63 567 45 52 -7 171 -32
265 -56 246 -63 342 -77 508 -74 77 1 154 7 171 12 63 21 115 49 140 74 l26
26 0 216 c0 224 -3 241 -41 241 -10 0 -31 -12 -48 -26 -28 -23 -35 -24 -33 -2
1 3 -6 12 -14 19 -13 11 -14 9 -9 -13 11 -44 -13 -55 -127 -62 -57 -4 -138 -3
-180 1 l-78 8 61 70 c194 224 292 533 261 829 -46 440 -320 789 -739 939 -138
50 -338 73 -488 56z m243 -341 l3 -38 -115 0 -116 0 0 35 0 34 83 4 c146 6
142 7 145 -35z m-268 -7 c0 -27 -5 -41 -17 -45 -265 -102 -284 -108 -304 -90
-10 9 -19 21 -19 26 0 29 249 147 313 148 25 0 27 -3 27 -39z m412 13 c71 -25
198 -92 198 -104 0 -4 -13 -19 -30 -35 -16 -16 -30 -35 -30 -43 0 -20 91 -123
119 -133 21 -8 30 -4 63 28 l39 38 20 -25 c52 -67 139 -250 139 -295 0 -11
-12 -15 -45 -15 l-45 0 0 -85 0 -85 -68 0 -67 0 -52 103 c-47 92 -57 122 -94
297 -58 273 -57 270 -78 270 -15 0 -21 -12 -30 -62 -6 -35 -25 -142 -42 -238
-30 -169 -33 -178 -86 -272 l-54 -98 -50 0 -49 0 0 335 0 335 70 0 70 0 0 55
c0 65 0 65 102 29z m-875 -51 c73 -35 69 -31 56 -44 -8 -8 -17 -7 -33 1 -18
10 -25 9 -38 -4 -14 -13 -14 -20 -5 -36 9 -13 9 -21 2 -26 -13 -8 -12 -10 -33
56 -9 30 -20 61 -23 68 -7 18 11 15 74 -15z m1370 -29 c17 -26 16 -27 -9 -48
-14 -11 -28 -30 -30 -41 -5 -31 -49 -31 -78 0 l-24 25 24 17 c14 10 38 30 55
45 37 34 41 34 62 2z m-1493 -35 c3 -17 19 -43 34 -59 19 -18 26 -33 21 -42
-6 -9 -13 -7 -32 10 -14 13 -42 24 -71 28 -40 6 -45 9 -34 20 10 10 22 11 47
4 29 -8 32 -7 28 8 -17 54 -19 62 -9 62 5 0 12 -14 16 -31z m716 -53 c0 -72
-3 -85 -17 -90 -47 -13 -276 -37 -283 -30 -14 16 -40 108 -33 115 5 4 55 26
113 48 76 29 121 40 163 40 l57 1 0 -84z m570 -11 l44 -45 -30 -30 -30 -30
-49 50 -49 50 24 25 c13 14 29 25 35 25 6 0 31 -20 55 -45z m-1040 -9 c0 -13
-51 -66 -64 -66 -5 0 -18 8 -28 17 -18 16 -17 18 19 55 34 35 38 37 55 21 10
-9 18 -21 18 -27z m1330 0 c0 -8 -9 -16 -20 -19 -24 -6 -26 -26 -6 -53 13 -16
18 -17 36 -6 21 13 40 9 40 -9 0 -5 -4 -9 -10 -9 -5 0 -32 -13 -58 -30 -55
-34 -62 -36 -62 -17 0 8 11 19 25 25 30 14 31 22 7 53 -18 21 -20 22 -43 6
-28 -20 -39 -21 -39 -4 1 14 111 86 123 80 4 -2 7 -10 7 -17z m-1270 -76 c-7
-28 -16 -50 -21 -50 -4 0 -58 -7 -120 -16 -61 -8 -113 -13 -116 -10 -6 5 47
86 57 86 3 0 17 -11 30 -25 13 -14 29 -25 37 -25 7 0 41 26 75 57 36 33 63 52
66 45 2 -7 -2 -35 -8 -62z m-346 1 l39 -26 -69 -21 -69 -21 40 -19 c22 -10 42
-19 44 -21 1 -1 0 -6 -3 -12 -4 -6 -31 5 -68 27 -67 40 -67 39 27 64 l50 14
-43 25 c-23 14 -39 28 -36 32 7 7 30 -4 88 -42z m1119 16 c-3 -5 -10 -4 -15 1
-6 6 -7 16 -3 22 6 9 9 9 16 -1 4 -7 5 -17 2 -22z m18 -69 c6 -22 3 -27 -15
-30 -30 -6 -46 1 -40 18 2 8 6 21 9 30 8 24 38 12 46 -18z m-381 9 c0 -10 -38
-19 -136 -31 -126 -17 -158 -16 -140 1 5 5 177 32 264 42 6 0 12 -5 12 -12z
m-340 -46 c0 -13 -37 -24 -50 -16 -6 4 -8 11 -5 16 8 12 55 12 55 0z m-92 -13
c-5 -14 -264 -55 -275 -44 -13 13 13 21 125 37 148 21 155 22 150 7z m432 -1
c0 -9 -38 -18 -126 -30 -115 -16 -147 -17 -132 -2 3 3 61 14 129 24 68 10 125
19 127 20 1 1 2 -5 2 -12z m960 -13 c0 -3 -25 -29 -56 -59 -40 -37 -57 -48
-61 -38 -3 8 2 20 12 27 27 19 11 58 -22 54 -15 -2 -28 3 -30 10 -4 9 16 12
76 12 45 0 81 -3 81 -6z m-565 -24 c0 -10 -12 -15 -38 -17 -38 -1 -53 9 -42
28 11 16 80 7 80 -11z m-695 -10 c0 -5 -9 -10 -21 -10 -11 0 -17 5 -14 10 3 6
13 10 21 10 8 0 14 -4 14 -10z m-492 -12 c-3 -7 -18 -15 -34 -18 -34 -6 -45
-37 -19 -56 9 -7 15 -17 14 -23 -4 -11 -109 75 -109 89 0 5 30 11 68 13 37 2
71 4 75 5 5 1 7 -4 5 -10z m402 2 c0 -5 -4 -10 -10 -10 -5 0 -10 5 -10 10 0 6
5 10 10 10 6 0 10 -4 10 -10z m-60 -9 c0 -8 -217 -41 -269 -41 -53 0 -4 16 97
31 128 19 172 22 172 10z m452 -147 c2 -86 0 -160 -3 -165 -3 -6 -39 -9 -79
-7 l-74 3 -46 145 c-26 80 -46 147 -44 148 3 5 171 29 211 31 l32 1 3 -156z
m416 99 c3 -22 0 -23 -57 -23 -52 0 -61 3 -61 18 0 29 10 33 65 30 43 -3 50
-6 53 -25z m-710 5 c-7 -19 -31 -21 -53 -4 -19 15 -18 15 18 16 27 0 37 -4 35
-12z m-178 -19 c0 -6 -13 -65 -30 -131 -16 -65 -30 -121 -30 -124 0 -2 -34 -4
-75 -4 l-75 0 0 85 0 85 -45 0 c-47 0 -51 6 -36 45 7 17 26 22 127 36 150 21
164 21 164 8z m1479 -51 c1 -29 -25 -44 -58 -33 -14 4 -25 -3 -40 -24 -12 -16
-21 -31 -21 -34 0 -3 29 -13 65 -22 36 -10 68 -22 71 -26 3 -5 -27 -24 -66
-44 -63 -32 -70 -33 -70 -16 0 10 9 21 20 24 14 3 20 14 20 31 0 21 -5 26 -25
26 -22 0 -25 4 -25 33 0 21 8 41 20 52 29 26 25 38 -10 32 -22 -5 -30 -3 -30
7 0 9 21 19 53 26 28 7 59 16 67 21 17 9 28 -11 29 -53z m-1964 9 c0 -19 8
-23 58 -31 54 -9 68 -18 48 -30 -5 -4 -33 -1 -61 5 -43 9 -54 9 -61 -2 -5 -8
-7 -20 -4 -26 2 -7 0 -13 -6 -13 -11 0 -6 67 7 113 7 23 18 13 19 -16z m604
-12 c0 -6 -5 -17 -9 -25 -7 -12 -11 -12 -29 4 -29 26 -26 34 9 32 17 -1 30 -6
29 -11z m101 -26 c15 -27 13 -29 -30 -29 -43 0 -50 12 -24 41 18 20 40 15 54
-12z m643 24 c-18 -2 -48 -2 -65 0 -18 2 -4 4 32 4 36 0 50 -2 33 -4z m-815
-41 c2 -7 -3 -12 -12 -12 -9 0 -16 7 -16 16 0 17 22 14 28 -4z m722 -6 c0 -3
-23 -39 -51 -81 -53 -81 -79 -97 -37 -23 55 96 64 108 76 108 6 0 12 -2 12 -4z
m189 -76 c37 -71 40 -80 23 -80 -14 0 -28 19 -51 70 -17 39 -31 75 -31 80 0
27 21 2 59 -70z m-39 -77 c0 -2 -16 -3 -35 -3 l-35 0 1 73 0 72 35 -69 c19
-38 34 -71 34 -73z m-1170 32 l0 -95 -30 0 -30 0 0 95 0 95 30 0 30 0 0 -95z
m1057 -32 c-3 -2 -23 -3 -46 -1 l-40 3 42 65 42 65 3 -64 c2 -35 1 -65 -1 -68z
m473 32 l0 -95 -30 0 -30 0 0 95 0 95 30 0 30 0 0 -95z m-1230 67 c0 -4 -7
-18 -16 -30 -18 -26 -49 -31 -40 -6 3 9 6 22 6 30 0 8 10 14 25 14 14 0 25 -3
25 -8z m200 -18 c13 -32 13 -34 -2 -34 -7 1 -29 14 -48 30 l-34 30 37 0 c31 0
39 -4 47 -26z m-103 -9 l28 -24 -53 -1 c-54 0 -56 3 -29 38 13 17 22 15 54
-13z m-537 -24 c0 -13 -11 -15 -70 -13 -53 3 -70 7 -70 18 0 12 14 15 70 13
57 -2 70 -5 70 -18z m568 -48 c-27 -2 -69 -2 -95 0 -27 2 -5 3 47 3 52 0 74
-1 48 -3z m-568 -16 c0 -8 -11 -19 -24 -25 -31 -14 -24 -50 10 -58 22 -6 34
-24 17 -24 -19 0 -133 45 -133 52 0 7 103 63 123 67 4 0 7 -5 7 -12z m1893
-69 c-3 -32 -10 -58 -15 -58 -6 0 -7 11 -4 25 6 23 4 25 -31 26 -55 2 -97 12
-96 24 0 6 27 9 67 7 l66 -4 0 28 c0 17 4 24 9 19 5 -6 6 -36 4 -67z m-1032
-120 c1 -186 1 -199 -12 -213 -5 -5 -9 35 -9 102 l0 111 -57 6 c-32 3 -200 17
-373 32 -173 14 -321 27 -327 29 -7 3 -13 11 -13 19 0 11 14 16 53 18 48 3 52
5 55 31 l3 27 340 0 339 0 1 -162z m709 132 c0 -30 1 -30 55 -30 64 0 63 3 36
-102 -38 -146 -110 -273 -216 -380 -53 -54 -167 -138 -186 -138 -5 0 -9 26 -9
58 0 82 -8 102 -36 102 -30 0 -92 -25 -116 -47 -21 -19 -17 -23 -52 50 -20 42
-44 71 -87 105 l-59 47 0 176 c0 97 3 179 7 182 3 4 154 7 335 7 l328 0 0 -30z
m-1554 -109 c-4 -6 -17 -11 -30 -11 -32 0 -36 -7 -24 -42 11 -30 17 -31 61
-13 13 5 17 2 17 -12 0 -15 -12 -22 -62 -32 -74 -15 -72 -15 -76 -3 -1 5 9 12
23 16 17 4 25 13 25 29 0 37 -14 51 -39 38 -17 -10 -22 -9 -27 4 -8 20 -11 18
61 36 59 15 84 11 71 -10z m1862 -30 c4 -11 -4 -12 -30 -7 -34 6 -36 5 -42
-25 -7 -38 -5 -41 27 -41 19 0 23 -5 19 -20 -3 -13 -10 -17 -21 -12 -9 4 -40
12 -69 18 -39 8 -52 14 -49 26 2 8 10 13 18 11 8 -2 22 -6 31 -8 12 -4 21 3
28 22 12 31 6 45 -18 45 -24 0 -46 16 -39 27 8 14 140 -20 145 -36z m-1508
-107 l5 -92 53 -47 52 -47 0 -94 c0 -52 -3 -94 -6 -94 -4 0 -31 14 -60 31
l-54 30 0 62 c-1 61 -1 62 -45 96 -35 28 -44 42 -49 75 -5 36 -9 146 -7 169 1
4 25 7 54 5 l52 -3 5 -91z m176 46 l34 0 0 -86 0 -86 50 -47 c52 -49 57 -62
40 -105 l-9 -25 -40 17 c-34 14 -41 22 -41 45 0 19 -16 45 -55 87 l-55 60 0
68 c0 72 5 86 28 77 7 -3 29 -5 48 -5z m194 -80 c0 -39 6 -79 12 -90 10 -16
10 -23 -4 -36 -15 -15 -19 -14 -52 12 -36 29 -36 30 -36 107 l0 77 40 0 40 0
0 -70z m-654 -16 c12 -64 -29 -105 -91 -90 -34 9 -76 96 -46 96 5 0 9 -12 9
-27 0 -33 29 -56 61 -48 46 12 67 69 36 95 -22 18 -18 33 5 20 11 -6 22 -26
26 -46z m1672 -1 c34 -14 61 -30 60 -35 -5 -13 -11 -12 -78 14 -33 12 -60 29
-60 35 0 18 6 17 78 -14z m-814 -124 c51 -45 80 -94 92 -154 l7 -38 -78 6
c-43 4 -122 7 -177 7 l-98 0 6 28 c24 98 110 190 180 192 12 0 42 -19 68 -41z
m266 -165 l0 -56 -47 7 c-27 3 -58 9 -71 12 l-23 5 23 25 c24 26 84 62 106 63
8 0 12 -18 12 -56z m-560 -15 c0 -9 -96 -23 -109 -15 -8 5 -7 27 5 64 3 10 17
6 54 -14 27 -15 50 -31 50 -35z m-930 -329 c0 -33 -4 -60 -10 -60 -11 0 -14
103 -3 113 12 12 13 8 13 -53z m143 -8 l-6 -53 -38 37 -39 38 0 -37 c0 -20 -5
-37 -11 -37 -6 0 -9 21 -7 55 2 30 5 55 8 55 2 0 21 -17 42 -37 l38 -37 0 44
c0 26 4 40 9 35 5 -6 7 -34 4 -63z m97 47 c0 -6 -4 -7 -10 -4 -5 3 -10 11 -10
16 0 6 5 7 10 4 6 -3 10 -11 10 -16z m115 11 c3 -5 -1 -10 -10 -10 -9 0 -13 5
-10 10 3 6 8 10 10 10 2 0 7 -4 10 -10z m48 -52 c0 -30 -5 -54 -12 -56 -12 -4
-16 99 -4 111 12 12 16 -1 16 -55z m180 -45 c18 -17 42 15 48 63 l6 49 1 -57
c2 -55 1 -58 -25 -64 -37 -10 -57 7 -61 51 -5 61 11 78 18 18 3 -28 9 -55 13
-60z m160 89 c-20 -3 -23 -9 -23 -53 0 -27 -4 -49 -10 -49 -10 0 -14 102 -5
112 3 3 18 3 33 -1 25 -5 25 -6 5 -9z m102 8 c3 -5 -1 -10 -10 -10 -9 0 -13 5
-10 10 3 6 8 10 10 10 2 0 7 -4 10 -10z m179 -10 c17 -16 10 -72 -9 -86 -29
-21 -72 -17 -89 8 -22 31 -20 45 10 74 19 20 31 24 52 19 15 -3 31 -10 36 -15z
m84 2 c-22 -4 -24 -32 -3 -32 8 0 15 -4 15 -10 0 -5 -7 -10 -15 -10 -9 0 -15
-9 -15 -25 0 -15 -6 -25 -14 -25 -10 0 -13 14 -11 58 2 31 3 58 4 58 1 1 13
-1 29 -4 19 -4 22 -7 10 -10z m172 6 c0 -5 -9 -8 -20 -8 -19 0 -21 -5 -17 -50
4 -38 2 -50 -9 -50 -10 0 -14 14 -14 50 0 38 -4 50 -15 50 -8 0 -15 3 -15 8 0
4 20 7 45 7 25 0 45 -3 45 -7z m52 -15 c-2 -14 5 -23 20 -28 l23 -8 -23 -4
c-27 -5 -26 -39 1 -37 9 1 17 -2 17 -7 0 -5 -13 -9 -30 -9 l-30 0 0 61 c0 44
3 60 13 56 6 -2 11 -13 9 -24z m156 7 c4 -13 3 -13 -11 -2 -22 19 -56 6 -63
-24 -8 -33 22 -67 53 -61 13 2 23 0 23 -4 0 -16 -63 -10 -82 8 -31 27 -18 81
22 96 25 9 53 3 58 -13z m57 -11 c-5 -16 -1 -19 24 -19 27 0 31 4 31 26 0 14
4 23 10 19 6 -3 10 -31 10 -61 0 -30 -4 -54 -10 -54 -5 0 -10 11 -10 25 0 18
-5 25 -20 25 -31 0 -35 -3 -32 -27 2 -15 -2 -23 -13 -23 -12 0 -15 12 -15 53
0 30 3 57 6 60 12 12 25 -5 19 -24z m343 15 c29 -20 31 -79 3 -94 -55 -29
-114 13 -95 67 5 15 15 28 23 31 9 3 12 0 9 -9 -4 -8 -9 -21 -12 -30 -4 -9 2
-26 13 -40 16 -20 23 -22 38 -13 27 16 28 52 2 80 -25 27 -15 32 19 8z m82
-45 c0 -46 2 -50 20 -44 11 4 20 2 20 -4 0 -6 -16 -11 -35 -11 l-35 0 0 53 c0
30 3 57 6 60 15 14 24 -7 24 -54z m148 45 c43 -30 17 -104 -36 -104 -50 0 -83
65 -50 98 20 20 28 13 16 -13 -24 -52 35 -105 62 -56 15 29 13 39 -15 66 -27
28 -12 34 23 9z m126 10 c9 -3 16 -10 16 -15 0 -5 -9 -4 -20 3 -42 27 -81 -40
-45 -76 24 -24 45 -20 45 9 0 16 6 25 16 25 11 0 14 -5 10 -16 -3 -9 -6 -22
-6 -30 0 -17 -52 -19 -81 -4 -28 15 -26 74 3 94 24 17 38 19 62 10z m-2022
-51 c11 -11 18 -29 16 -40 -4 -21 -45 -30 -62 -13 -8 9 -4 10 17 5 34 -9 36 9
6 41 -15 16 -19 29 -14 41 6 15 8 15 12 3 3 -8 14 -25 25 -37z m98 -8 c0 -40
-4 -55 -14 -55 -10 0 -12 12 -8 49 4 46 3 50 -19 54 -19 3 -17 5 9 6 l32 1 0
-55z m193 48 c-20 -4 -23 -11 -23 -54 0 -27 -4 -49 -10 -49 -5 0 -10 22 -10
49 0 43 -3 50 -22 54 -13 2 2 4 32 4 30 0 45 -2 33 -4z m174 1 c-3 -3 -12 -4
-19 -1 -8 3 -5 6 6 6 11 1 17 -2 13 -5z m123 -14 c0 -11 7 -20 15 -20 8 0 15
-4 15 -10 0 -5 -7 -10 -15 -10 -9 0 -15 -9 -15 -21 0 -14 5 -19 15 -16 8 4 17
2 20 -3 4 -6 -7 -10 -24 -10 -31 0 -31 0 -31 55 0 30 5 55 10 55 6 0 10 -9 10
-20z m940 -17 c0 20 4 37 10 37 5 0 8 -15 6 -32 -3 -18 -5 -44 -5 -58 -1 -23
-2 -23 -41 15 l-40 39 0 -37 c0 -20 -5 -37 -11 -37 -6 0 -9 17 -5 48 2 26 5
51 5 57 1 5 19 -9 41 -30 l40 -39 0 37z m572 15 l15 -22 12 22 c6 12 16 22 22
22 6 0 1 -13 -10 -29 -12 -16 -21 -41 -21 -55 0 -14 -4 -26 -10 -26 -5 0 -10
12 -10 28 0 15 -7 36 -15 46 -8 11 -15 23 -15 28 0 16 18 8 32 -14z"/>
<path d="M1452 2743 c-22 -4 -42 -37 -42 -68 0 -7 21 -18 51 -25 43 -11 52
-10 62 3 7 8 21 17 32 19 24 4 33 37 13 49 -7 5 -23 7 -36 4 -15 -4 -24 0 -28
10 -6 15 -10 16 -52 8z"/>
<path d="M1870 2535 c0 -9 7 -29 15 -45 14 -26 21 -30 59 -30 70 0 74 44 7 73
-48 21 -81 22 -81 2z"/>
<path d="M714 2854 c3 -8 6 -18 6 -20 0 -3 5 -2 10 1 15 9 12 22 -6 29 -12 5
-15 2 -10 -10z"/>
<path d="M2083 2825 c-3 -9 -3 -19 1 -22 7 -7 36 16 36 28 0 15 -30 10 -37 -6z"/>
<path d="M2036 2781 c-12 -13 -14 -21 -6 -26 18 -11 40 3 40 25 0 25 -12 26
-34 1z"/>
<path d="M2230 2520 c0 -5 4 -10 9 -10 6 0 13 5 16 10 3 6 -1 10 -9 10 -9 0
-16 -4 -16 -10z"/>
<path d="M450 2471 c0 -5 7 -11 15 -15 9 -3 15 0 15 9 0 8 -7 15 -15 15 -8 0
-15 -4 -15 -9z"/>
<path d="M2290 2390 c-11 -7 -12 -12 -3 -21 15 -15 47 -7 51 14 4 19 -23 23
-48 7z"/>
<path d="M2300 2235 c0 -9 6 -12 15 -9 8 4 15 7 15 9 0 2 -7 5 -15 9 -9 3 -15
0 -15 -9z"/>
<path d="M405 2100 c-3 -5 3 -10 15 -10 12 0 18 5 15 10 -3 6 -10 10 -15 10
-5 0 -12 -4 -15 -10z"/>
<path d="M1595 2083 c-14 -13 -16 -31 -13 -85 3 -63 2 -69 -14 -65 -12 3 -34
-9 -60 -33 -39 -35 -42 -41 -33 -67 7 -20 25 -35 62 -53 52 -24 53 -26 53 -68
0 -24 5 -52 10 -63 14 -26 64 -25 101 2 l29 21 31 -26 c60 -51 111 -19 113 70
1 40 4 45 33 55 47 15 83 47 83 73 0 25 -30 56 -74 75 -22 9 -26 15 -18 23 17
17 15 100 -4 126 -21 31 -55 27 -106 -12 l-44 -33 -42 38 c-45 42 -80 50 -107
22z m90 -59 l36 -36 -22 -25 c-15 -15 -32 -23 -49 -21 -20 2 -26 10 -31 42
-13 83 10 97 66 40z m185 -3 c0 -17 -5 -33 -10 -36 -6 -4 -8 -15 -5 -26 10
-29 -55 -27 -74 3 -12 20 -11 25 23 55 45 42 66 43 66 4z m-104 -119 c6 -4 17
-24 25 -45 12 -33 11 -39 -4 -54 -22 -23 -87 -21 -104 3 -17 24 -16 33 7 72
19 31 50 41 76 24z m74 -6 c0 -3 -4 -8 -10 -11 -5 -3 -10 -1 -10 4 0 6 5 11
10 11 6 0 10 -2 10 -4z m-230 -25 c13 -25 13 -58 -1 -66 -6 -4 -31 1 -55 10
-54 20 -55 42 -4 61 47 17 48 17 60 -5z m310 4 c39 -20 38 -39 -4 -59 -64 -30
-82 -15 -51 44 18 35 17 35 55 15z m-234 -150 c16 -24 16 -27 -2 -40 -41 -31
-67 -13 -57 38 7 35 37 36 59 2z m142 -20 c3 -51 -10 -58 -49 -27 -22 19 -22
19 -3 45 30 41 49 35 52 -18z"/>
<path d="M1162 1208 c-15 -15 -15 -61 0 -76 35 -35 73 13 49 64 -12 26 -30 31
-49 12z"/>
<path d="M1385 859 c-4 -6 -17 -14 -29 -19 -19 -8 -19 -9 7 -9 28 -1 37 -15
15 -24 -9 -4 -8 -6 2 -6 19 -1 21 -51 2 -51 -9 0 -11 7 -7 20 4 14 2 20 -8 20
-22 0 -28 -27 -11 -45 37 -37 69 -5 58 57 -4 24 -7 49 -5 56 2 15 -15 16 -24
1z"/>
<path d="M1710 830 c0 -11 11 -27 25 -36 14 -9 25 -23 25 -30 0 -16 -16 -19
-25 -4 -11 18 -35 11 -35 -10 0 -11 5 -20 11 -20 6 0 9 7 5 15 -7 20 4 19 19
-2 7 -9 17 -13 23 -9 19 12 14 54 -8 66 -23 12 -18 27 14 40 17 7 15 9 -16 9
-31 1 -38 -2 -38 -19z"/>
<path d="M930 830 c0 -6 -6 -10 -13 -8 -7 2 -14 -1 -15 -7 -1 -5 4 -10 11 -10
21 -1 37 -16 37 -36 0 -23 -8 -24 -32 -3 -16 16 -18 15 -24 0 -4 -10 -1 -23 6
-29 10 -10 12 -8 7 6 -8 22 2 22 18 0 10 -14 16 -15 28 -5 14 12 12 58 -4 67
-4 3 -6 12 -2 20 3 8 0 15 -6 15 -6 0 -11 -5 -11 -10z"/>
<path d="M1145 830 c-4 -6 -15 -8 -26 -5 -29 10 -23 -12 8 -27 31 -15 44 -48
18 -48 -8 0 -20 11 -25 25 -12 31 -45 33 -60 4 -19 -34 1 -45 82 -45 71 1 73
2 76 27 2 14 -4 31 -12 39 -10 8 -16 8 -16 2 0 -6 5 -14 10 -17 15 -9 12 -35
-4 -35 -18 0 -51 63 -36 68 13 5 13 22 1 22 -6 0 -13 -5 -16 -10z m-40 -61 c0
-7 -8 -15 -17 -17 -18 -3 -25 18 -11 32 10 10 28 1 28 -15z"/>
<path d="M1885 830 c-3 -5 -12 -7 -19 -4 -13 5 -23 -15 -32 -63 -6 -29 27 -48
56 -33 22 12 26 49 8 69 -10 11 -10 14 0 18 14 5 16 23 3 23 -6 0 -12 -4 -16
-10z m9 -46 c7 -19 -2 -37 -15 -29 -12 8 -12 45 0 45 5 0 12 -7 15 -16z"/>
<path d="M1975 831 c-6 -5 -19 -11 -30 -13 -17 -3 -15 -6 13 -21 17 -10 32
-24 32 -32 0 -18 -5 -19 -30 -3 -22 14 -35 6 -26 -17 10 -26 60 -16 64 13 2
13 -1 29 -7 36 -6 8 -9 21 -5 30 7 18 3 21 -11 7z"/>
<path d="M446 813 c-6 -14 -5 -15 5 -6 7 7 10 15 7 18 -3 3 -9 -2 -12 -12z"/>
<path d="M1542 813 c2 -10 11 -17 20 -15 9 1 22 -7 28 -19 14 -25 6 -36 -15
-19 -19 16 -47 6 -39 -15 3 -8 10 -15 15 -15 4 0 6 8 2 18 -6 16 -5 15 15 -1
42 -38 59 14 18 57 -27 30 -49 34 -44 9z"/>
<path d="M1444 796 c-3 -8 -4 -25 -2 -38 2 -18 10 -23 36 -25 38 -3 46 9 33
52 -7 21 -10 24 -10 10 -2 -19 -2 -19 -15 -2 -16 21 -35 22 -42 3z m60 -34 c3
-5 -8 -9 -24 -9 -16 0 -27 4 -24 9 3 4 14 8 24 8 10 0 21 -4 24 -8z"/>
<path d="M990 786 c0 -7 10 -25 21 -40 23 -29 19 -47 -5 -27 -17 15 -36 7 -36
-15 0 -11 9 -14 33 -12 28 3 32 6 29 28 -2 14 -3 37 -3 53 0 20 -5 27 -19 27
-11 0 -20 -6 -20 -14z m25 -6 c3 -5 1 -10 -4 -10 -6 0 -11 5 -11 10 0 6 2 10
4 10 3 0 8 -4 11 -10z"/>
<path d="M1635 789 c-4 -6 2 -21 14 -33 31 -33 25 -66 -7 -34 -9 9 -15 9 -23
1 -17 -17 -1 -33 32 -33 25 0 29 4 29 29 0 16 -6 31 -12 34 -10 3 -10 7 -1 19
7 8 10 18 6 21 -10 11 -31 8 -38 -4z m25 -9 c0 -5 -2 -10 -4 -10 -3 0 -8 5
-11 10 -3 6 -1 10 4 10 6 0 11 -4 11 -10z"/>
<path d="M391 694 c-23 -53 -40 -98 -38 -100 2 -2 22 40 45 93 23 53 40 98 38
100 -2 2 -22 -40 -45 -93z"/>
<path d="M1237 778 c-6 -18 11 -48 28 -48 17 0 34 30 28 48 -3 6 -15 12 -28
12 -13 0 -25 -6 -28 -12z m43 -13 c0 -8 -7 -15 -15 -15 -8 0 -15 7 -15 15 0 8
7 15 15 15 8 0 15 -7 15 -15z"/>
<path d="M974 609 c-37 -39 -94 -73 -170 -100 -88 -32 -265 -32 -396 1 -54 13
-101 21 -104 17 -12 -12 -1 -16 102 -43 80 -20 119 -25 204 -23 115 2 176 16
260 60 51 26 146 106 137 115 -2 2 -17 -10 -33 -27z"/>
<path d="M1750 624 c0 -15 77 -76 130 -104 89 -45 149 -58 262 -58 103 0 197
14 273 41 31 12 36 16 23 22 -10 4 -32 2 -50 -4 -46 -16 -204 -41 -261 -41
-65 0 -192 27 -242 52 -22 11 -61 38 -87 60 -27 21 -48 36 -48 32z"/>
<path d="M994 503 c3 -38 13 -81 27 -110 28 -59 111 -143 169 -173 55 -28 134
-102 162 -151 l21 -39 20 33 c32 54 88 107 173 162 44 29 97 73 118 98 41 51
77 132 75 175 -1 23 -2 22 -10 -11 -22 -94 -87 -176 -183 -233 -76 -46 -130
-96 -163 -152 l-25 -43 -26 38 c-42 64 -84 103 -167 157 -119 78 -167 144
-185 254 l-9 57 3 -62z"/>
<path d="M1205 524 c-12 -5 -7 -124 6 -124 5 0 9 29 9 65 0 36 -1 65 -2 64 -2
0 -7 -2 -13 -5z"/>
<path d="M1287 523 c-13 -13 -7 -51 9 -57 9 -4 19 -4 22 -1 3 3 1 5 -5 5 -17
0 -25 31 -12 46 11 14 -1 20 -14 7z"/>
<path d="M1328 518 c15 -15 15 -52 1 -81 -10 -21 -9 -21 10 2 31 35 23 91 -13
91 -6 0 -5 -5 2 -12z"/>
<path d="M1390 523 c0 -5 18 -8 40 -8 22 -1 40 3 40 7 0 4 -18 8 -40 8 -22 0
-40 -3 -40 -7z"/>
<path d="M1507 523 c-12 -11 -8 -40 8 -53 9 -8 15 -9 15 -2 0 6 -4 13 -9 16
-5 3 -7 15 -4 26 5 20 2 25 -10 13z"/>
<path d="M1548 518 c17 -17 15 -59 -4 -88 -14 -22 -12 -22 10 3 35 38 34 97
-2 97 -12 0 -13 -3 -4 -12z"/>
<path d="M1430 460 c-20 -40 -27 -72 -12 -54 11 12 43 94 37 94 -2 0 -14 -18
-25 -40z"/>
</g>
</svg>
