<svg version="1.1" id="Layer_1" xmlns="http://www.w3.org/2000/svg" xmlns:xlink="http://www.w3.org/1999/xlink" x="0px" y="0px"
	 width="100%" viewBox="0 0 257 148" enable-background="new 0 0 257 148" xml:space="preserve">
<path fill="#FFFFFF" opacity="1.000000" stroke="none" 
	d="
M164.000000,149.000000 
	C109.366783,149.000000 55.233570,149.000000 1.050177,149.000000 
	C1.050177,99.730629 1.050177,50.461193 1.050177,1.095877 
	C86.549751,1.095877 172.099640,1.095877 257.824768,1.095877 
	C257.824768,50.332832 257.824768,99.666359 257.824768,149.000000 
	C226.794785,149.000000 195.647385,149.000000 164.000000,149.000000 
M166.354019,133.899704 
	C166.597336,133.639099 166.840652,133.378510 168.006393,132.609055 
	C170.428329,128.711227 166.734726,129.236664 164.925949,127.882965 
	C163.965195,128.561890 163.004440,129.240814 161.169815,130.537277 
	C163.224792,130.829773 164.015762,130.942352 164.933945,131.506256 
	C164.933945,131.506256 164.836044,131.964844 164.162720,132.007599 
	C163.559921,132.414261 162.957108,132.820908 162.354309,133.227570 
	C163.115906,134.031921 163.877518,134.836258 164.639114,135.640610 
	C165.093872,135.095795 165.548615,134.550995 166.000015,134.000000 
	C166.000015,134.000000 166.005051,134.002335 166.354019,133.899704 
M45.074135,96.170692 
	C43.521137,99.079277 42.048958,102.034554 40.400219,104.887817 
	C35.128078,114.011635 32.492798,123.216522 39.015690,132.926590 
	C41.147850,136.100540 42.967716,139.496429 45.240318,142.560989 
	C48.538780,147.008896 52.539806,147.340271 56.696980,143.576172 
	C58.776318,141.693436 60.253643,139.084717 62.467995,137.424057 
	C68.279152,133.065979 70.660812,127.231346 71.089401,120.229004 
	C71.336723,116.188179 71.943085,112.169327 72.375351,108.253792 
	C73.330688,108.200813 73.714554,108.058815 73.969055,108.182663 
	C89.889641,115.930679 105.475815,113.996300 121.117058,107.048164 
	C123.952164,105.788750 127.607231,106.375206 132.229370,106.000381 
	C125.885529,114.763077 125.791306,123.276573 125.865868,131.797821 
	C125.905586,136.336578 127.949463,138.219833 132.373001,137.868088 
	C136.343216,137.552383 140.410812,137.485535 144.229050,136.505112 
	C148.150528,135.498169 152.263214,134.140686 155.514832,131.838577 
	C163.311127,126.318886 170.651398,120.155067 177.251831,114.976112 
	C181.086227,116.105003 184.793228,118.560760 187.309814,117.666519 
	C193.429169,115.492065 199.450592,112.372223 204.659454,108.490028 
	C210.082153,104.448441 214.834152,99.347931 219.264938,94.183266 
	C223.009247,89.818741 226.838684,85.091080 228.963791,79.848549 
	C238.549347,56.201382 220.729614,29.698702 194.485336,28.221529 
	C190.939621,28.021954 188.910828,26.812183 186.848969,23.983480 
	C179.956497,14.527635 170.761612,7.922003 159.344559,5.265609 
	C132.974899,-0.869800 106.954765,9.948465 92.099129,32.530125 
	C90.997635,34.204483 88.717957,35.309834 86.763123,36.177639 
	C81.165123,38.662743 74.910110,40.093086 69.954933,43.467525 
	C65.934525,46.205406 62.236305,47.111015 57.654438,47.417435 
	C55.149323,47.584969 51.436466,49.488857 50.748329,51.470814 
	C50.058094,53.458809 51.753910,57.384399 53.651051,58.909264 
	C56.722836,61.378273 57.485611,63.874039 56.888470,67.408913 
	C56.502472,69.693901 56.696129,72.096214 56.149986,74.328499 
	C55.726070,76.061226 54.963127,78.127792 53.652466,79.153786 
	C48.314697,83.332237 45.449173,88.629082 45.074135,96.170692 
M167.513290,126.417870 
	C167.513290,126.417870 167.582092,126.537064 167.513290,126.417870 
M169.087112,134.497055 
	C169.278992,134.568329 169.470871,134.639587 169.662735,134.710846 
	C169.604065,134.512451 169.545395,134.314056 169.087112,134.497055 
z"/>
<path fill="#BFB388" opacity="1.000000" stroke="none" 
	d="
M45.101898,95.764099 
	C45.449173,88.629082 48.314697,83.332237 53.652466,79.153786 
	C54.963127,78.127792 55.726070,76.061226 56.149986,74.328499 
	C56.696129,72.096214 56.502472,69.693901 56.888470,67.408913 
	C57.485611,63.874039 56.722836,61.378273 53.651051,58.909264 
	C51.753910,57.384399 50.058094,53.458809 50.748329,51.470814 
	C51.436466,49.488857 55.149323,47.584969 57.654438,47.417435 
	C62.236305,47.111015 65.934525,46.205406 69.954933,43.467525 
	C74.910110,40.093086 81.165123,38.662743 86.763123,36.177639 
	C88.717957,35.309834 90.997635,34.204483 92.099129,32.530125 
	C106.954765,9.948465 132.974899,-0.869800 159.344559,5.265609 
	C170.761612,7.922003 179.956497,14.527635 186.848969,23.983480 
	C188.910828,26.812183 190.939621,28.021954 194.485336,28.221529 
	C220.729614,29.698702 238.549347,56.201382 228.963791,79.848549 
	C226.838684,85.091080 223.009247,89.818741 219.264938,94.183266 
	C214.834152,99.347931 210.082153,104.448441 204.659454,108.490028 
	C199.450592,112.372223 193.429169,115.492065 187.309814,117.666519 
	C184.793228,118.560760 181.086227,116.105003 177.251831,114.976112 
	C170.651398,120.155067 163.311127,126.318886 155.514832,131.838577 
	C152.263214,134.140686 148.150528,135.498169 144.229050,136.505112 
	C140.410812,137.485535 136.343216,137.552383 132.373001,137.868088 
	C127.949463,138.219833 125.905586,136.336578 125.865868,131.797821 
	C125.791306,123.276573 125.885529,114.763077 132.229370,106.000381 
	C127.607231,106.375206 123.952164,105.788750 121.117058,107.048164 
	C105.475815,113.996300 89.889641,115.930679 73.969055,108.182663 
	C73.714554,108.058815 73.330688,108.200813 72.375351,108.253792 
	C71.943085,112.169327 71.336723,116.188179 71.089401,120.229004 
	C70.660812,127.231346 68.279152,133.065979 62.467995,137.424057 
	C60.253643,139.084717 58.776318,141.693436 56.696980,143.576172 
	C52.539806,147.340271 48.538780,147.008896 45.240318,142.560989 
	C42.967716,139.496429 41.147850,136.100540 39.015690,132.926590 
	C32.492798,123.216522 35.128078,114.011635 40.400219,104.887817 
	C42.048958,102.034554 43.521137,99.079277 45.101898,95.764099 
M117.601944,22.704124 
	C125.767220,22.704140 133.941330,22.929733 142.094086,22.610168 
	C146.246521,22.447405 148.402054,24.260967 151.130814,27.190592 
	C157.056503,33.552448 154.399216,40.006809 153.092743,46.741737 
	C148.586319,46.741737 144.304550,46.741737 139.657623,46.741737 
	C139.970749,43.150013 140.263306,39.794117 140.571793,36.255394 
	C130.156845,36.255394 120.194580,36.255394 109.704262,36.255394 
	C108.025665,47.286144 106.358101,58.244427 104.642479,69.518547 
	C108.369179,69.518547 111.571747,69.518547 114.862701,69.518547 
	C115.381752,65.733757 115.853729,62.292278 116.352043,58.658691 
	C114.945259,58.229858 113.747040,57.864601 112.367439,57.444057 
	C112.984200,53.863800 113.567757,50.476288 114.130066,47.212143 
	C120.562141,47.212143 126.601082,47.212143 132.736786,47.212143 
	C131.608017,54.842091 130.541458,62.051464 129.425079,69.597656 
	C131.808136,69.597656 133.727921,69.597656 135.949661,69.597656 
	C136.378082,66.713799 136.566696,63.880413 137.298615,61.195107 
	C137.650040,59.905769 138.935196,58.025574 139.958115,57.916290 
	C143.667831,57.519993 147.445526,57.760086 152.171783,57.760086 
	C150.718277,63.768780 150.691299,69.641998 147.988373,73.757919 
	C143.481522,80.620804 137.081848,85.986946 127.465118,82.938148 
	C126.913078,86.770653 126.499893,89.639153 126.023392,92.947227 
	C131.478043,92.947227 136.290054,92.947227 141.102081,92.947227 
	C152.502716,92.947227 152.416733,92.935104 153.988037,81.787323 
	C155.627289,70.157402 157.455093,58.554058 159.173752,47.116875 
	C165.753540,47.116875 171.686935,47.116875 177.922241,47.116875 
	C177.492752,50.242893 177.256607,53.049816 176.645721,55.772655 
	C176.451874,56.636635 175.209122,57.234051 174.535400,58.028927 
	C173.527557,59.217968 171.977646,60.363804 171.737625,61.719151 
	C170.288284,69.903458 169.243149,78.158569 167.856400,86.355080 
	C167.258072,89.891510 167.111145,94.062965 165.111542,96.693542 
	C160.130569,103.246338 154.205490,108.828880 144.582947,106.671829 
	C139.587646,105.552055 135.776291,108.398598 134.381943,112.773453 
	C132.412643,118.952225 131.577499,125.492485 130.139847,132.447464 
	C134.754074,131.883148 137.881882,131.203430 141.014099,131.182480 
	C146.671936,131.144592 151.336014,129.452179 155.171707,125.078758 
	C156.983963,123.012444 159.678940,121.743660 161.856659,119.969521 
	C166.081406,116.527718 170.273514,113.041542 174.372284,109.451752 
	C175.818787,108.184875 176.953171,106.561623 178.563049,104.720177 
	C180.264160,107.061279 181.450089,109.053749 183.006332,110.695129 
	C183.889557,111.626686 185.720993,112.802872 186.538956,112.461929 
	C190.937393,110.628563 195.812027,109.109688 199.290726,106.071938 
	C206.291901,99.958176 213.005951,93.354042 218.925262,86.196945 
	C230.848557,71.780334 227.778763,50.467899 212.019257,40.340168 
	C206.528992,36.811897 199.355423,35.946587 193.021255,33.668655 
	C190.063766,32.605057 186.183243,31.858223 184.581802,29.630310 
	C171.956299,12.065804 154.924728,6.211302 134.256348,10.116813 
	C124.823029,11.899339 116.010567,15.582332 107.754463,22.703995 
	C111.437744,22.703995 114.041389,22.703995 117.601944,22.704124 
M63.244789,52.838322 
	C60.875282,52.838322 58.505775,52.838322 56.136272,52.838322 
	C56.039394,53.274414 55.942513,53.710510 55.845634,54.146603 
	C57.766510,55.297779 59.897739,56.215099 61.531906,57.685013 
	C62.565479,58.614700 63.440758,60.395664 63.378391,61.748310 
	C63.143169,66.850105 62.167786,71.930725 62.134468,77.023621 
	C62.116890,79.711212 61.811298,81.192703 59.143887,82.385124 
	C54.672047,84.384171 51.196095,87.872223 51.082409,92.966805 
	C50.962715,98.330406 48.392094,102.274742 45.919128,106.668633 
	C43.388641,111.164734 40.602024,116.490486 40.810394,121.328918 
	C41.133175,128.823822 46.089386,134.960251 51.097218,140.907913 
	C59.267715,133.695709 66.292458,126.948128 66.259689,115.072098 
	C66.220695,100.939980 68.226898,100.192360 81.059937,105.162285 
	C92.839470,109.724205 104.383530,107.787125 115.981438,103.438492 
	C112.371651,97.090340 112.371651,97.090340 112.001183,83.286217 
	C109.600716,83.286217 107.154671,83.286293 104.708626,83.286201 
	C94.860146,83.285820 88.937012,76.010925 90.580559,66.328201 
	C92.045769,57.696148 93.149712,49.002777 94.513611,39.646912 
	C84.886276,41.462543 76.561104,44.107742 69.665977,50.419224 
	C68.256073,51.709789 65.982140,52.056427 63.244789,52.838322 
z"/>
<path fill="#E3E3E1" opacity="1.000000" stroke="none" 
	d="
M166.003372,134.006180 
	C165.548615,134.550995 165.093872,135.095795 164.639114,135.640610 
	C163.877518,134.836258 163.115906,134.031921 162.354309,133.227570 
	C162.957108,132.820908 163.559921,132.414261 164.570282,132.308746 
	C165.319702,133.075317 165.661545,133.540756 166.003372,134.006180 
z"/>
<path fill="#626261" opacity="1.000000" stroke="none" 
	d="
M166.001694,134.003082 
	C165.661545,133.540756 165.319702,133.075317 164.906952,132.287369 
	C164.836044,131.964844 164.933945,131.506256 164.923828,130.838074 
	C164.925507,129.573959 164.937302,128.978027 164.949097,128.382080 
	C166.734726,129.236664 170.428329,128.711227 167.392517,132.576538 
	C166.520767,133.030121 166.262909,133.516220 166.005051,134.002335 
	C166.005051,134.002335 166.000015,134.000000 166.001694,134.003082 
z"/>
<path fill="#DDDDDC" opacity="1.000000" stroke="none" 
	d="
M164.937531,128.132523 
	C164.937302,128.978027 164.925507,129.573959 164.860199,130.612427 
	C164.015762,130.942352 163.224792,130.829773 161.169815,130.537277 
	C163.004440,129.240814 163.965195,128.561890 164.937531,128.132523 
z"/>
<path fill="#E3E3E1" opacity="1.000000" stroke="none" 
	d="
M166.179535,133.951019 
	C166.262909,133.516220 166.520767,133.030121 166.931305,132.830963 
	C166.840652,133.378510 166.597336,133.639099 166.179535,133.951019 
z"/>
<path fill="#DDDDDC" opacity="1.000000" stroke="none" 
	d="
M167.547699,126.477463 
	C167.582092,126.537064 167.513290,126.417870 167.547699,126.477463 
z"/>
<path fill="#E3E3E1" opacity="1.000000" stroke="none" 
	d="
M169.286926,134.306366 
	C169.545395,134.314056 169.604065,134.512451 169.662750,134.710846 
	C169.470871,134.639587 169.278992,134.568329 169.286926,134.306366 
z"/>
<path fill="#080706" opacity="1.000000" stroke="none" 
	d="
M117.123489,22.704060 
	C114.041389,22.703995 111.437744,22.703995 107.754463,22.703995 
	C116.010567,15.582332 124.823029,11.899339 134.256348,10.116813 
	C154.924728,6.211302 171.956299,12.065804 184.581802,29.630310 
	C186.183243,31.858223 190.063766,32.605057 193.021255,33.668655 
	C199.355423,35.946587 206.528992,36.811897 212.019257,40.340168 
	C227.778763,50.467899 230.848557,71.780334 218.925262,86.196945 
	C213.005951,93.354042 206.291901,99.958176 199.290726,106.071938 
	C195.812027,109.109688 190.937393,110.628563 186.538956,112.461929 
	C185.720993,112.802872 183.889557,111.626686 183.006332,110.695129 
	C181.450089,109.053749 180.264160,107.061279 178.563049,104.720177 
	C176.953171,106.561623 175.818787,108.184875 174.372284,109.451752 
	C170.273514,113.041542 166.081406,116.527718 161.856659,119.969521 
	C159.678940,121.743660 156.983963,123.012444 155.171707,125.078758 
	C151.336014,129.452179 146.671936,131.144592 141.014099,131.182480 
	C137.881882,131.203430 134.754074,131.883148 130.139847,132.447464 
	C131.577499,125.492485 132.412643,118.952225 134.381943,112.773453 
	C135.776291,108.398598 139.587646,105.552055 144.582947,106.671829 
	C154.205490,108.828880 160.130569,103.246338 165.111542,96.693542 
	C167.111145,94.062965 167.258072,89.891510 167.856400,86.355080 
	C169.243149,78.158569 170.288284,69.903458 171.737625,61.719151 
	C171.977646,60.363804 173.527557,59.217968 174.535400,58.028927 
	C175.209122,57.234051 176.451874,56.636635 176.645721,55.772655 
	C177.256607,53.049816 177.492752,50.242893 177.922241,47.116875 
	C171.686935,47.116875 165.753540,47.116875 159.173752,47.116875 
	C157.455093,58.554058 155.627289,70.157402 153.988037,81.787323 
	C152.416733,92.935104 152.502716,92.947227 141.102081,92.947227 
	C136.290054,92.947227 131.478043,92.947227 126.023392,92.947227 
	C126.499893,89.639153 126.913078,86.770653 127.465118,82.938148 
	C137.081848,85.986946 143.481522,80.620804 147.988373,73.757919 
	C150.691299,69.641998 150.718277,63.768780 152.171783,57.760086 
	C147.445526,57.760086 143.667831,57.519993 139.958115,57.916290 
	C138.935196,58.025574 137.650040,59.905769 137.298615,61.195107 
	C136.566696,63.880413 136.378082,66.713799 135.949661,69.597656 
	C133.727921,69.597656 131.808136,69.597656 129.425079,69.597656 
	C130.541458,62.051464 131.608017,54.842091 132.736786,47.212143 
	C126.601082,47.212143 120.562141,47.212143 114.130066,47.212143 
	C113.567757,50.476288 112.984200,53.863800 112.367439,57.444057 
	C113.747040,57.864601 114.945259,58.229858 116.352043,58.658691 
	C115.853729,62.292278 115.381752,65.733757 114.862701,69.518547 
	C111.571747,69.518547 108.369179,69.518547 104.642479,69.518547 
	C106.358101,58.244427 108.025665,47.286144 109.704262,36.255394 
	C120.194580,36.255394 130.156845,36.255394 140.571793,36.255394 
	C140.263306,39.794117 139.970749,43.150013 139.657623,46.741737 
	C144.304550,46.741737 148.586319,46.741737 153.092743,46.741737 
	C154.399216,40.006809 157.056503,33.552448 151.130814,27.190592 
	C148.402054,24.260967 146.246521,22.447405 142.094086,22.610168 
	C133.941330,22.929733 125.767220,22.704140 117.123489,22.704060 
M189.212265,67.920326 
	C189.000473,68.551979 188.787521,69.183243 188.577072,69.815346 
	C187.485306,73.094505 188.036652,76.051437 191.461960,77.233063 
	C195.327835,78.566666 196.701981,75.436874 197.763062,72.561096 
	C199.897369,66.776581 201.906006,60.945709 204.186050,54.514706 
	C197.998459,57.732689 192.845337,61.361118 189.212265,67.920326 
z"/>
<path fill="#070605" opacity="1.000000" stroke="none" 
	d="
M63.675640,52.838249 
	C65.982140,52.056427 68.256073,51.709789 69.665977,50.419224 
	C76.561104,44.107742 84.886276,41.462543 94.513611,39.646912 
	C93.149712,49.002777 92.045769,57.696148 90.580559,66.328201 
	C88.937012,76.010925 94.860146,83.285820 104.708626,83.286201 
	C107.154671,83.286293 109.600716,83.286217 112.001183,83.286217 
	C112.371651,97.090340 112.371651,97.090340 115.981438,103.438492 
	C104.383530,107.787125 92.839470,109.724205 81.059937,105.162285 
	C68.226898,100.192360 66.220695,100.939980 66.259689,115.072098 
	C66.292458,126.948128 59.267715,133.695709 51.097218,140.907913 
	C46.089386,134.960251 41.133175,128.823822 40.810394,121.328918 
	C40.602024,116.490486 43.388641,111.164734 45.919128,106.668633 
	C48.392094,102.274742 50.962715,98.330406 51.082409,92.966805 
	C51.196095,87.872223 54.672047,84.384171 59.143887,82.385124 
	C61.811298,81.192703 62.116890,79.711212 62.134468,77.023621 
	C62.167786,71.930725 63.143169,66.850105 63.378391,61.748310 
	C63.440758,60.395664 62.565479,58.614700 61.531906,57.685013 
	C59.897739,56.215099 57.766510,55.297779 55.845634,54.146603 
	C55.942513,53.710510 56.039394,53.274414 56.136272,52.838322 
	C58.505775,52.838322 60.875282,52.838322 63.675640,52.838249 
z"/>
<path fill="#EFEFEF" opacity="1.000000" stroke="none" 
	d="
M189.418396,67.603058 
	C192.845337,61.361118 197.998459,57.732689 204.186050,54.514706 
	C201.906006,60.945709 199.897369,66.776581 197.763062,72.561096 
	C196.701981,75.436874 195.327835,78.566666 191.461960,77.233063 
	C188.036652,76.051437 187.485306,73.094505 188.577072,69.815346 
	C188.787521,69.183243 189.000473,68.551979 189.418396,67.603058 
z"/>
</svg>